<svg width="767" height="434" viewBox="0 0 767 434" fill="none" xmlns="http://www.w3.org/2000/svg">
<path d="M676.934 291.5C676.934 335.25 769.184 345.75 765.934 397.75C763.934 429.5 731.934 434.25 716.184 434C685.934 433 671.684 414 665.934 413.5C663.684 413.25 662.684 416.5 662.684 416.5H659.684V379.25H662.684C669.184 416 701.434 428.75 716.184 429C744.184 429 751.934 409.75 751.934 397.75C751.934 357 662.934 342.25 662.934 291.5C662.934 275.25 675.434 250.25 718.434 257.25C739.684 260.75 743.934 272.25 750.434 273.25C752.684 273.5 753.684 270.25 753.684 270.25H756.684V305.25H753.684C749.934 274.5 732.434 264.25 716.684 262.25C685.434 257.75 676.934 277.75 676.934 291.5Z" fill="black"/>
<path d="M611.125 410.75C621.375 426 633.125 428 639.625 428.75V431.5H602.625V428.75C602.625 428.75 604.625 428.75 604.875 427C605.125 425.5 604.375 423.75 602.125 420.75C600.125 418.25 552.875 348.75 539.375 329.25H531.125V415.5C531.375 424.75 533.625 426.5 547.625 428.5H547.875V431.5H500.625V428.5H500.875C514.625 426.5 517.125 424.75 517.125 415.5V274.5C517.125 265.25 514.625 263.75 503.125 261.75C502.125 261.5 500.625 261.25 500.625 261.25V258.25H531.125H566.375C600.625 258.25 614.625 276.25 614.625 293.75C614.625 310.75 600.625 329.25 566.375 329.25H555.875C561.875 338 576.625 359.75 611.125 410.75ZM531.125 324.25H559.125C586.125 324.25 600.375 313.5 600.625 293.75C600.375 274 586.125 263.25 559.125 263.25C550.125 263.25 539.875 264.25 531.125 266V324.25Z" fill="black"/>
<path d="M434.266 258.25H480.516V261.5C480.016 261.5 479.766 261.5 479.016 261.75C467.516 263.5 465.266 265.75 465.016 274V388.25C465.016 395.25 463.516 401.75 460.766 407.25C458.516 411.75 455.516 416 452.016 419.25C451.016 420.25 450.266 421 449.266 421.75C444.516 425.5 439.016 428.75 432.766 430.75C426.516 432.75 420.016 433.75 413.266 433.75H412.016C405.016 433.75 398.766 432.75 392.266 430.75C386.016 428.75 380.516 425.5 375.766 421.75C374.766 421 374.016 420.25 373.016 419.25C369.516 416 366.516 411.75 364.266 407.25C361.516 401.5 360.266 395 360.266 387.75L360.016 274.5C360.016 265 357.516 263.25 343.766 261.25H343.516V258.25H390.766V261.25H390.516C377.016 263.25 374.516 265 374.016 273.75V390.5C374.016 396.25 375.266 401.5 377.266 406.25C379.266 410.75 382.016 414.75 385.516 418C388.016 420.5 391.016 422.5 394.516 424.25C395.516 424.75 396.266 425 397.266 425.5C402.016 427.25 407.016 428.25 412.516 428.25C418.266 428.25 423.266 427.25 428.016 425.5C428.766 425 429.766 424.75 430.766 424.25C434.016 422.5 437.016 420.5 439.766 418C443.266 414.75 446.016 410.75 448.016 406.25C450.016 401.75 451.016 396.5 451.016 390.5V388V274.5C450.766 265 448.516 263.25 434.516 261.25H434.266V258.25Z" fill="black"/>
<path d="M317.332 310.75C321.582 321.75 323.582 334 323.582 347.25C323.582 358.25 321.332 369.25 316.832 379.5C312.082 389.75 306.082 399.25 298.332 407.25C290.582 415.25 281.582 421.75 271.332 426.5C261.082 431.5 250.082 433.75 238.582 433.75C227.332 433.75 216.582 431.5 206.832 427C197.082 422.25 188.582 415.75 181.332 407.75C174.082 399.5 168.582 389.75 164.332 378.75C160.332 367.75 158.332 355.5 158.332 342.75C158.332 331.5 160.582 320.75 165.082 310.5C169.582 300 175.832 290.75 183.582 282.75C191.332 274.75 200.582 268.25 210.582 263.25C220.832 258.5 231.832 256 243.332 256C254.582 256 265.332 258.25 275.082 262.75C284.832 267.5 293.332 273.75 300.332 281.75C307.582 289.75 313.332 299.5 317.332 310.75ZM304.332 382.25C307.832 372.5 309.582 360.75 309.582 347.25C309.582 336.75 307.582 326.25 304.082 316.5C300.332 306.75 295.332 297.75 288.832 290C282.582 282.5 275.082 276.25 266.582 271.5C257.832 266.75 248.832 264.5 239.082 264.5C229.832 264.5 220.832 266 212.832 269.25C204.832 272.25 197.582 277 191.582 283.25C185.582 289.75 180.832 298 177.332 307.75C174.082 317.5 172.332 329.25 172.332 342.75C172.332 353 174.082 363 177.832 373C181.582 382.75 186.582 391.75 193.082 399.5C199.332 407.25 206.832 413.5 215.582 418.25C224.082 423 233.332 425.5 242.832 425.5C252.332 425.5 261.082 423.75 269.082 420.75C277.332 417.75 284.332 413 290.332 406.5C296.332 400.25 301.082 392 304.332 382.25Z" fill="black"/>
<path d="M138 260.25C124 262.25 121.75 264.25 121.5 273.5V414.5C121.75 423.75 124 425.75 138 427.75H138.25V430.5H90.75V427.75H91C105 425.75 107.25 423.75 107.5 414.5V328.25H30.5V414.5C30.75 423.75 33 425.75 47 427.75H47.25V430.5H0V427.75H0.250001C14 425.75 16.5 423.75 16.5 414.5V273.5C16.5 264.25 14 262.25 0.250001 260.25H0V257.5H47.25V260.25H47C33.25 262.25 30.75 264 30.5 273.25V323.25H107.5V273.5C107.25 264.25 105 262.25 91 260.25H90.75V257.5H138.25V260.25H138Z" fill="black"/>
<path d="M710.496 156.75C720.746 172 732.496 174 738.996 174.75V177.5H701.996V174.75C701.996 174.75 703.996 174.75 704.246 173C704.496 171.5 703.746 169.75 701.496 166.75C699.496 164.25 652.246 94.75 638.746 75.25H630.496V161.5C630.746 170.75 632.996 172.5 646.996 174.5H647.246V177.5H599.996V174.5H600.246C613.996 172.5 616.496 170.75 616.496 161.5V20.5C616.496 11.25 613.996 9.74999 602.496 7.75C601.496 7.49999 599.996 7.24999 599.996 7.24999V4.25H630.496H665.746C699.996 4.25 713.996 22.25 713.996 39.75C713.996 56.75 699.996 75.25 665.746 75.25H655.246C661.246 84 675.996 105.75 710.496 156.75ZM630.496 70.25H658.496C685.496 70.25 699.746 59.5 699.996 39.75C699.746 20 685.496 9.25 658.496 9.25C649.496 9.25 639.246 10.25 630.496 12V70.25Z" fill="black"/>
<path d="M575.635 152.25C576.135 151.75 576.385 151 576.635 150.5L579.635 152.25L579.385 152.5C574.885 159.25 569.635 171.5 568.135 179.5L567.885 180L564.885 179.75V179.5C564.135 176.5 563.135 176.5 552.385 176.5H484.385V173.75H484.885C498.385 171.5 501.135 170.25 501.135 160.5V19.5C501.135 9.75 498.385 8.5 484.885 6.25H484.635V3.5H552.385C563.135 3.25 564.135 3.5 564.885 0.499994V0.249997L567.885 0L568.135 0.499994C569.635 8.5 574.885 20.5 579.385 27.5L579.635 27.75L576.635 29.5V29.25C576.385 29 576.135 28.5 575.635 27.75C573.385 23.75 567.385 13.5 554.135 9.74999C550.385 8.74999 542.385 8.5 536.385 8.5H515.135V69.25H552.885C562.635 69.25 563.885 67.75 567.135 54.5L567.385 54.25H570.635V54.75C570.385 55.25 570.385 56 570.135 56.75C569.385 61 568.135 66.5 568.135 71.75C568.135 77.75 569.385 83.75 570.385 88.5L570.635 89.5H567.385L567.135 89.25C563.885 76 562.635 74.5 552.885 74.25H515.135V171.5H536.385C542.385 171.5 550.385 171 554.135 170C567.385 166.5 573.385 156 575.635 152.25Z" fill="black"/>
<path d="M464.344 28.25V28.75L461.594 30.25L461.344 30C461.094 29.75 460.844 29.5 460.594 28.75C458.344 24.75 452.344 14.25 439.094 10.75C435.094 9.74999 427.094 9.25 421.094 9.25H406.594V161.25C406.844 170.75 409.094 172.5 423.094 174.5H423.344V177.5H375.844V174.5H376.344C390.094 172.5 392.594 170.75 392.594 161.25V9.25H378.094C372.344 9.25 364.344 9.74999 360.344 10.75C347.094 14.25 341.094 24.75 338.844 28.75C338.594 29.5 338.344 29.75 338.094 30L337.844 30.25L335.094 28.75V28.25C339.844 21.5 344.844 9.49999 346.594 1.49999V1L349.594 1.25L349.844 1.49999C350.594 4.25 351.344 4.25 362.344 4.25H437.094C447.844 4.25 448.844 4.25 449.594 1.49999L449.844 1.25L452.594 1L452.844 1.49999C454.594 9.49999 459.594 21.5 464.344 28.25Z" fill="black"/>
<path d="M314.494 27.5L314.744 27.75L311.994 29.5L311.744 29.25C311.494 29 311.244 28.5 310.744 27.75C308.494 23.75 302.744 13.5 289.244 9.74999C285.494 8.74999 277.494 8.5 271.494 8.5H250.244V69.25H287.994C297.744 69.25 298.994 67.75 302.494 54.5V54.25H305.744V54.75C305.494 55.25 305.494 56 305.244 56.75C304.494 61 303.244 66.5 303.244 71.75C303.244 77.75 304.494 83.75 305.494 88.5L305.744 89.5H302.494V89.25C298.994 76 297.744 74.5 287.994 74.25H250.244V160.5H250.494C250.494 169.75 252.994 171.75 266.744 173.75H266.994V176.5H219.244V173.75C221.994 173.75 227.994 172.25 227.994 172.25C234.744 170.25 236.244 167.5 236.494 160.5V19.5C236.244 10 233.494 8.5 220.494 6.49999C220.494 6.49999 220.244 6.49999 219.994 6.25H219.744V3.5H287.494C298.244 3.25 299.244 3.5 299.994 0.499994V0.249997L302.994 0L303.244 0.499994C304.744 8.5 309.994 20.5 314.494 27.5Z" fill="black"/>
<path d="M183.229 169C186.979 172.5 198.979 173.75 198.979 173.75V176.5H150.479V173.75C157.979 173.25 164.229 172.25 164.229 167.25C164.229 166.25 163.979 164.75 163.479 163.5L131.979 79.5H81.9785L50.7285 163.5C50.2285 165 49.9785 166.25 49.9785 167.25C49.9785 172.25 55.9785 172.75 63.4785 173.25L67.4785 173.75V176.5H26.9785V173.75C38.7285 172.5 42.2285 170.5 45.2285 163.25L96.7285 24.75L98.4785 20C100.229 15 100.229 13 98.7285 10.75C96.2285 7 87.2285 6.49999 75.2285 6.25V3.5H148.229V6.49999H147.979C135.729 6.75 126.979 6.49999 124.229 10.75C122.979 12.25 122.979 13.75 123.729 16.5L177.729 159.5C179.729 164.5 181.479 167.25 183.229 169ZM83.7285 74.25H129.979C121.729 52.25 106.729 12.5 106.729 12.5L102.229 24.75L83.7285 74.25Z" fill="black"/>
</svg>
