<svg width="2144" height="458" viewBox="0 0 2144 458" fill="none" xmlns="http://www.w3.org/2000/svg">
<path d="M1999.88 0.182042C2026.88 0.182042 2084.88 -3.81794 2114.88 25.682C2144.88 55.182 2142.38 104.682 2143.38 129.682V152.182C2143.38 171.182 2145.38 215.182 2123.38 237.182C2094.38 265.682 2029.88 261.682 2008.38 259.182V446.682H1893.38V0.182042H1999.88ZM2007.88 188.682C2044.88 188.182 2046.38 177.682 2048.38 164.682V96.1821C2048.38 72.1821 2023.88 73.682 2007.88 73.682V188.682Z" fill="white"/>
<path d="M1743.51 0.182129H1855.51V315.182C1855.51 362.682 1856.51 407.682 1802.01 440.182C1759.51 465.182 1684.01 461.682 1643.51 438.182C1586.01 405.182 1585.51 337.682 1585.51 301.682V0.182129H1699.01V337.682C1699.01 364.682 1703.51 381.182 1722.01 381.182C1742.51 381.182 1743.51 364.682 1743.51 337.182V0.182129Z" fill="white"/>
<path d="M1295.02 0.182129L1325.52 186.182L1358.52 0.182129H1466.02L1381.52 288.682V446.682H1273.52V288.682L1190.52 0.182129H1295.02Z" fill="white"/>
<path d="M1056.93 85.6821C1050.93 74.1821 1039.93 72.1821 1022.93 73.1821V171.182C1039.93 171.682 1050.93 170.182 1056.93 158.682C1060.43 150.682 1060.43 92.6822 1056.93 85.6821ZM1058.93 250.682C1052.93 239.682 1039.93 237.182 1022.93 237.682V446.682H910.43V0.18212H1018.93C1042.93 0.18212 1126.43 -0.817875 1153.43 45.6821C1167.93 69.6821 1168.43 153.182 1157.93 180.182C1153.93 189.182 1140.93 210.182 1107.93 213.182C1151.93 217.182 1171.43 244.682 1170.93 313.182V446.682H1062.93V301.182C1062.43 259.182 1062.93 262.682 1058.93 250.682Z" fill="white"/>
<path d="M758.336 85.6821C752.336 74.1821 741.336 72.1821 724.336 73.1821V171.182C741.336 171.682 752.336 170.182 758.336 158.682C761.836 150.682 761.836 92.6822 758.336 85.6821ZM760.336 250.682C754.336 239.682 741.336 237.182 724.336 237.682V446.682H611.836V0.18212H720.336C744.336 0.18212 827.836 -0.817875 854.836 45.6821C869.336 69.6821 869.836 153.182 859.336 180.182C855.336 189.182 842.336 210.182 809.336 213.182C853.336 217.182 872.836 244.682 872.336 313.182V446.682H764.336V301.182C763.836 259.182 764.336 262.682 760.336 250.682Z" fill="white"/>
<path d="M461.965 0.182129H573.965V315.182C573.965 362.682 574.965 407.682 520.465 440.182C477.965 465.182 402.465 461.682 361.965 438.182C304.465 405.182 303.965 337.682 303.965 301.682V0.182129H417.465V337.682C417.465 364.682 421.965 381.182 440.465 381.182C460.965 381.182 461.965 364.682 461.965 337.182V0.182129Z" fill="white"/>
<path d="M0 0.182129H111.5V162.182H152.5V0.182129H266V446.682H152.5V258.682H111.5V447.182H0V0.182129Z" fill="white"/>
</svg>
