<svg width="1550" height="182" viewBox="0 0 1550 182" fill="none" xmlns="http://www.w3.org/2000/svg">
<path d="M1515.88 178.5V162H1515.38C1511.38 168.833 1505.96 173.917 1499.13 177.25C1492.46 180.417 1484.8 182 1476.13 182C1466.8 182 1458.46 180.167 1451.13 176.5C1443.8 172.667 1437.63 167.5 1432.63 161C1427.8 154.5 1424.13 147.167 1421.63 139C1419.3 130.667 1418.13 121.917 1418.13 112.75C1418.13 103.917 1419.3 95.5 1421.63 87.5C1424.13 79.5 1427.8 72.3333 1432.63 66C1437.46 59.6667 1443.46 54.75 1450.63 51.25C1457.96 47.5833 1466.21 45.75 1475.38 45.75C1483.21 45.75 1490.55 47.4167 1497.38 50.75C1504.38 54.0833 1509.8 58.8333 1513.63 65H1514.13V0H1549.63V178.5H1515.88ZM1515.38 113.5C1515.38 107.833 1514.8 102.583 1513.63 97.75C1512.63 92.9167 1510.96 88.5833 1508.63 84.75C1506.3 80.9167 1503.13 77.9167 1499.13 75.75C1495.13 73.5833 1490.38 72.5 1484.88 72.5C1479.21 72.5 1474.38 73.5833 1470.38 75.75C1466.38 77.9167 1463.13 81 1460.63 85C1458.13 88.8333 1456.3 93.25 1455.13 98.25C1454.13 103.083 1453.63 108.25 1453.63 113.75C1453.63 118.917 1454.21 124 1455.38 129C1456.71 133.833 1458.63 138.25 1461.13 142.25C1463.8 146.25 1467.05 149.417 1470.88 151.75C1474.88 154.083 1479.55 155.25 1484.88 155.25C1490.55 155.25 1495.3 154.167 1499.13 152C1503.13 149.667 1506.3 146.583 1508.63 142.75C1511.13 138.75 1512.88 134.333 1513.88 129.5C1514.88 124.5 1515.38 119.167 1515.38 113.5Z" fill="#202020"/>
<path d="M1280.44 178.5V49.25H1314.19V67.25H1314.94C1319.27 60.25 1324.94 54.9167 1331.94 51.25C1339.1 47.5833 1346.6 45.75 1354.44 45.75C1363.6 45.75 1371.27 47 1377.44 49.5C1383.6 52 1388.44 55.5833 1391.94 60.25C1395.6 64.75 1398.1 70.25 1399.44 76.75C1400.94 83.0833 1401.69 90.5 1401.69 99V178.5H1366.19V105.5C1366.19 94.6667 1364.44 86.6667 1360.94 81.5C1357.44 76.3333 1351.6 73.75 1343.44 73.75C1333.77 73.75 1326.77 76.6667 1322.44 82.5C1318.1 88.1667 1315.94 97.5833 1315.94 110.75V178.5H1280.44Z" fill="#202020"/>
<path d="M1264.38 122.5H1171.13C1171.63 133.667 1174.55 141.917 1179.88 147.25C1185.21 152.583 1192.88 155.25 1202.88 155.25C1209.71 155.25 1215.8 153.583 1221.13 150.25C1226.46 146.75 1229.71 142.833 1230.88 138.5H1262.13C1257.3 153.333 1249.71 164.333 1239.38 171.5C1229.21 178.5 1216.63 182 1201.63 182C1191.63 182 1182.55 180.417 1174.38 177.25C1166.21 173.917 1159.21 169.25 1153.38 163.25C1147.71 157.083 1143.3 149.833 1140.13 141.5C1137.13 133 1135.63 123.833 1135.63 114C1135.63 104.333 1137.21 95.3333 1140.38 87C1143.55 78.6667 1148.05 71.4167 1153.88 65.25C1159.71 59.0833 1166.71 54.3333 1174.88 51C1183.05 47.5 1191.96 45.75 1201.63 45.75C1211.8 45.75 1220.8 47.6667 1228.63 51.5C1236.63 55.1667 1243.21 60.25 1248.38 66.75C1253.71 73.25 1257.71 80.75 1260.38 89.25C1263.21 97.75 1264.63 106.75 1264.63 116.25C1264.63 116.917 1264.55 117.917 1264.38 119.25C1264.38 120.75 1264.38 121.833 1264.38 122.5ZM1171.13 100H1228.88C1227.21 90.6667 1224.13 83.75 1219.63 79.25C1215.3 74.75 1208.96 72.5 1200.63 72.5C1195.3 72.5 1190.71 73.4167 1186.88 75.25C1183.21 77.0833 1180.21 79.4167 1177.88 82.25C1175.55 85.0833 1173.88 88.0833 1172.88 91.25C1171.88 94.25 1171.3 97.1667 1171.13 100Z" fill="#202020"/>
<path d="M1006.58 178.5V0H1042.08V95.75L1086.83 49.25H1128.83L1080.08 96.75L1134.33 178.5H1091.33L1055.83 120.75L1042.08 134V178.5H1006.58Z" fill="#202020"/>
<path d="M987.271 122.5H894.021C894.521 133.667 897.438 141.917 902.771 147.25C908.105 152.583 915.771 155.25 925.771 155.25C932.605 155.25 938.688 153.583 944.021 150.25C949.355 146.75 952.605 142.833 953.771 138.5H985.021C980.188 153.333 972.605 164.333 962.271 171.5C952.105 178.5 939.521 182 924.521 182C914.521 182 905.438 180.417 897.271 177.25C889.105 173.917 882.105 169.25 876.271 163.25C870.605 157.083 866.188 149.833 863.021 141.5C860.021 133 858.521 123.833 858.521 114C858.521 104.333 860.105 95.3333 863.271 87C866.438 78.6667 870.938 71.4167 876.771 65.25C882.605 59.0833 889.605 54.3333 897.771 51C905.938 47.5 914.855 45.75 924.521 45.75C934.688 45.75 943.688 47.6667 951.521 51.5C959.521 55.1667 966.105 60.25 971.271 66.75C976.605 73.25 980.605 80.75 983.271 89.25C986.105 97.75 987.521 106.75 987.521 116.25C987.521 116.917 987.438 117.917 987.271 119.25C987.271 120.75 987.271 121.833 987.271 122.5ZM894.021 100H951.771C950.105 90.6667 947.021 83.75 942.521 79.25C938.188 74.75 931.855 72.5 923.521 72.5C918.188 72.5 913.605 73.4167 909.771 75.25C906.105 77.0833 903.105 79.4167 900.771 82.25C898.438 85.0833 896.771 88.0833 895.771 91.25C894.771 94.25 894.188 97.1667 894.021 100Z" fill="#202020"/>
<path d="M848.717 122.5H755.467C755.967 133.667 758.883 141.917 764.217 147.25C769.55 152.583 777.217 155.25 787.217 155.25C794.05 155.25 800.133 153.583 805.467 150.25C810.8 146.75 814.05 142.833 815.217 138.5H846.467C841.633 153.333 834.05 164.333 823.717 171.5C813.55 178.5 800.967 182 785.967 182C775.967 182 766.883 180.417 758.717 177.25C750.55 173.917 743.55 169.25 737.717 163.25C732.05 157.083 727.633 149.833 724.467 141.5C721.467 133 719.967 123.833 719.967 114C719.967 104.333 721.55 95.3333 724.717 87C727.883 78.6667 732.383 71.4167 738.217 65.25C744.05 59.0833 751.05 54.3333 759.217 51C767.383 47.5 776.3 45.75 785.967 45.75C796.133 45.75 805.133 47.6667 812.967 51.5C820.967 55.1667 827.55 60.25 832.717 66.75C838.05 73.25 842.05 80.75 844.717 89.25C847.55 97.75 848.967 106.75 848.967 116.25C848.967 116.917 848.883 117.917 848.717 119.25C848.717 120.75 848.717 121.833 848.717 122.5ZM755.467 100H813.217C811.55 90.6667 808.467 83.75 803.967 79.25C799.633 74.75 793.3 72.5 784.967 72.5C779.633 72.5 775.05 73.4167 771.217 75.25C767.55 77.0833 764.55 79.4167 762.217 82.25C759.883 85.0833 758.217 88.0833 757.217 91.25C756.217 94.25 755.633 97.1667 755.467 100Z" fill="#202020"/>
<path d="M726.16 0L678.16 178.5H639.16L608.91 57H608.41L578.66 178.5H538.91L491.66 0H530.91L559.16 121.5H559.66L590.66 0H627.41L657.91 123H658.41L687.66 0H726.16Z" fill="#202020"/>
<path d="M423.775 122.5H330.525C331.025 133.667 333.942 141.917 339.275 147.25C344.609 152.583 352.275 155.25 362.275 155.25C369.109 155.25 375.192 153.583 380.525 150.25C385.859 146.75 389.109 142.833 390.275 138.5H421.525C416.692 153.333 409.109 164.333 398.775 171.5C388.609 178.5 376.025 182 361.025 182C351.025 182 341.942 180.417 333.775 177.25C325.609 173.917 318.609 169.25 312.775 163.25C307.109 157.083 302.692 149.833 299.525 141.5C296.525 133 295.025 123.833 295.025 114C295.025 104.333 296.609 95.3333 299.775 87C302.942 78.6667 307.442 71.4167 313.275 65.25C319.109 59.0833 326.109 54.3333 334.275 51C342.442 47.5 351.359 45.75 361.025 45.75C371.192 45.75 380.192 47.6667 388.025 51.5C396.025 55.1667 402.609 60.25 407.775 66.75C413.109 73.25 417.109 80.75 419.775 89.25C422.609 97.75 424.025 106.75 424.025 116.25C424.025 116.917 423.942 117.917 423.775 119.25C423.775 120.75 423.775 121.833 423.775 122.5ZM330.525 100H388.275C386.609 90.6667 383.525 83.75 379.025 79.25C374.692 74.75 368.359 72.5 360.025 72.5C354.692 72.5 350.109 73.4167 346.275 75.25C342.609 77.0833 339.609 79.4167 337.275 82.25C334.942 85.0833 333.275 88.0833 332.275 91.25C331.275 94.25 330.692 97.1667 330.525 100Z" fill="#202020"/>
<path d="M158.082 178.5V0H193.582V67.25H194.332C198.665 60.25 204.249 54.9167 211.082 51.25C218.082 47.5833 225.082 45.75 232.082 45.75C241.249 45.75 248.915 47 255.082 49.5C261.249 52 266.082 55.5833 269.582 60.25C273.249 64.75 275.749 70.25 277.082 76.75C278.582 83.0833 279.332 90.5 279.332 99V178.5H243.832V105.5C243.832 94.6667 242.082 86.6667 238.582 81.5C235.082 76.3333 229.249 73.75 221.082 73.75C211.415 73.75 204.415 76.6667 200.082 82.5C195.749 88.1667 193.582 97.5833 193.582 110.75V178.5H158.082Z" fill="#202020"/>
<path d="M53.5 178.5V33H0V0H146.25V33H92.75V178.5H53.5Z" fill="#202020"/>
</svg>
