<svg width="1370" height="114" viewBox="0 0 1370 114" fill="none" xmlns="http://www.w3.org/2000/svg">
<path d="M1367.88 24.25H1351C1350.42 21.1667 1349.04 18.5833 1346.88 16.5C1344.79 14.4167 1342.25 13.375 1339.25 13.375C1336.25 13.375 1333.67 14.25 1331.5 16C1329.33 17.75 1327.62 20 1326.38 22.75C1325.12 25.4167 1324.21 28.25 1323.62 31.25C1323.04 34.25 1322.67 37.1667 1322.5 40L1322.75 40.25C1325.17 36.8333 1327.96 34.375 1331.12 32.875C1334.37 31.2917 1338.17 30.5 1342.5 30.5C1346.25 30.5 1349.92 31.3333 1353.5 33C1357.08 34.5833 1360.12 36.75 1362.62 39.5C1364.87 42.0833 1366.54 45.0833 1367.62 48.5C1368.79 51.9167 1369.38 55.4167 1369.38 59C1369.38 63.4167 1368.63 67.5833 1367.12 71.5C1365.71 75.4167 1363.62 78.8333 1360.88 81.75C1358.13 84.6667 1354.87 86.9583 1351.12 88.625C1347.37 90.2083 1343.25 91 1338.75 91C1332.42 91 1327.04 89.75 1322.62 87.25C1318.21 84.75 1314.71 81.375 1312.12 77.125C1309.62 72.7917 1307.83 67.9583 1306.75 62.625C1305.67 57.2917 1305.12 51.6667 1305.12 45.75C1305.12 40.1667 1305.75 34.7083 1307 29.375C1308.33 23.9583 1310.38 19.0417 1313.12 14.625C1315.96 10.125 1319.58 6.58334 1324 4C1328.42 1.33333 1333.58 0 1339.5 0C1347.17 0 1353.54 2.16667 1358.62 6.5C1363.79 10.75 1366.88 16.6667 1367.88 24.25ZM1338.25 43.875C1333.75 43.875 1330.25 45.4583 1327.75 48.625C1325.33 51.7083 1324.12 55.5417 1324.12 60.125C1324.12 64.4583 1325.42 68.25 1328 71.5C1330.58 74.75 1334 76.375 1338.25 76.375C1342.33 76.375 1345.58 74.75 1348 71.5C1350.42 68.25 1351.62 64.5417 1351.62 60.375C1351.62 55.875 1350.46 52 1348.12 48.75C1345.88 45.5 1342.58 43.875 1338.25 43.875Z" fill="#202020"/>
<path d="M1257.17 35.375H1240.17C1240.17 24.7083 1242.96 16.1667 1248.54 9.75C1254.13 3.25 1261.92 0 1271.92 0C1275.92 0 1279.71 0.624999 1283.29 1.875C1286.96 3.125 1290.17 4.95834 1292.92 7.375C1295.75 9.70833 1297.96 12.5833 1299.54 16C1301.13 19.4167 1301.92 23.2083 1301.92 27.375C1301.92 33.375 1300.54 38.4167 1297.79 42.5C1295.13 46.5 1291.29 50.2917 1286.29 53.875C1284.88 54.875 1282.63 56.375 1279.54 58.375C1274.96 61.2917 1271.25 63.875 1268.42 66.125C1265.67 68.375 1263.21 71 1261.04 74H1302.42V89.25H1238.17C1238.17 84.3333 1238.88 80 1240.29 76.25C1241.71 72.5 1243.63 69.1667 1246.04 66.25C1248.46 63.3333 1251.13 60.75 1254.04 58.5C1257.04 56.25 1260.96 53.4583 1265.79 50.125C1265.88 50.0417 1266.83 49.4167 1268.67 48.25C1271.17 46.5833 1273.21 45.2083 1274.79 44.125C1276.38 42.9583 1277.88 41.625 1279.29 40.125C1280.71 38.5417 1281.88 36.8333 1282.79 35C1283.71 33.0833 1284.17 31 1284.17 28.75C1284.17 24.6667 1282.96 21.4167 1280.54 19C1278.13 16.5 1274.96 15.25 1271.04 15.25C1268.54 15.25 1266.38 15.8333 1264.54 17C1262.79 18.1667 1261.38 19.75 1260.29 21.75C1259.21 23.6667 1258.42 25.8333 1257.92 28.25C1257.42 30.5833 1257.17 32.9583 1257.17 35.375Z" fill="#202020"/>
<path d="M1171.21 45.125C1171.21 36.875 1172.04 29.8333 1173.71 24C1175.38 18.1667 1177.67 13.5 1180.59 10C1183.5 6.5 1186.88 3.95833 1190.71 2.375C1194.54 0.791666 1198.71 0 1203.21 0C1207.79 0 1212 0.791666 1215.84 2.375C1219.67 3.875 1223.04 6.41667 1225.96 10C1228.96 13.5 1231.29 18.1667 1232.96 24C1234.63 29.8333 1235.46 36.875 1235.46 45.125C1235.46 53.5417 1234.63 60.75 1232.96 66.75C1231.29 72.6667 1229 77.4167 1226.09 81C1223.17 84.5 1219.75 87.0417 1215.84 88.625C1212 90.2083 1207.79 91 1203.21 91C1198.71 91 1194.54 90.2083 1190.71 88.625C1186.88 87.0417 1183.5 84.5 1180.59 81C1177.67 77.4167 1175.38 72.6667 1173.71 66.75C1172.04 60.75 1171.21 53.5417 1171.21 45.125ZM1188.96 45.125C1188.96 48.875 1189.04 52.3333 1189.21 55.5C1189.46 58.5833 1190 61.75 1190.84 65C1191.75 68.25 1193.21 70.9583 1195.21 73.125C1197.21 75.2917 1199.88 76.375 1203.21 76.375C1206.63 76.375 1209.34 75.2917 1211.34 73.125C1213.42 70.9583 1214.88 68.25 1215.71 65C1216.63 61.75 1217.17 58.5833 1217.34 55.5C1217.59 52.3333 1217.71 48.875 1217.71 45.125C1217.71 41.5417 1217.59 38.25 1217.34 35.25C1217.17 32.25 1216.63 29.125 1215.71 25.875C1214.79 22.625 1213.34 19.9583 1211.34 17.875C1209.34 15.7083 1206.63 14.625 1203.21 14.625C1199.88 14.625 1197.21 15.7083 1195.21 17.875C1193.21 19.9583 1191.75 22.625 1190.84 25.875C1190 29.0417 1189.46 32.1667 1189.21 35.25C1189.04 38.25 1188.96 41.5417 1188.96 45.125Z" fill="#202020"/>
<path d="M1123.25 35.375H1106.25C1106.25 24.7083 1109.04 16.1667 1114.63 9.75C1120.21 3.25 1128 0 1138 0C1142 0 1145.79 0.624999 1149.38 1.875C1153.04 3.125 1156.25 4.95834 1159 7.375C1161.84 9.70833 1164.04 12.5833 1165.63 16C1167.21 19.4167 1168 23.2083 1168 27.375C1168 33.375 1166.63 38.4167 1163.88 42.5C1161.21 46.5 1157.38 50.2917 1152.38 53.875C1150.96 54.875 1148.71 56.375 1145.63 58.375C1141.04 61.2917 1137.34 63.875 1134.5 66.125C1131.75 68.375 1129.29 71 1127.13 74H1168.5V89.25H1104.25C1104.25 84.3333 1104.96 80 1106.38 76.25C1107.79 72.5 1109.71 69.1667 1112.13 66.25C1114.54 63.3333 1117.21 60.75 1120.13 58.5C1123.13 56.25 1127.04 53.4583 1131.88 50.125C1131.96 50.0417 1132.92 49.4167 1134.75 48.25C1137.25 46.5833 1139.29 45.2083 1140.88 44.125C1142.46 42.9583 1143.96 41.625 1145.38 40.125C1146.79 38.5417 1147.96 36.8333 1148.88 35C1149.79 33.0833 1150.25 31 1150.25 28.75C1150.25 24.6667 1149.04 21.4167 1146.63 19C1144.21 16.5 1141.04 15.25 1137.13 15.25C1134.63 15.25 1132.46 15.8333 1130.63 17C1128.88 18.1667 1127.46 19.75 1126.38 21.75C1125.29 23.6667 1124.5 25.8333 1124 28.25C1123.5 30.5833 1123.25 32.9583 1123.25 35.375Z" fill="#202020"/>
<path d="M1062.29 89.25V24.625H1079.17V36.625H1079.42C1081 32.625 1083.75 29.3333 1087.67 26.75C1091.58 24.1667 1095.71 22.875 1100.04 22.875C1101.38 22.875 1102.67 23.0833 1103.92 23.5V40C1103.17 39.8333 1102.17 39.7083 1100.92 39.625C1099.75 39.4583 1098.63 39.375 1097.54 39.375C1091.46 39.375 1087 41.2917 1084.17 45.125C1081.42 48.875 1080.04 53.875 1080.04 60.125V89.25H1062.29Z" fill="#202020"/>
<path d="M1051.32 24.625V89.25H1034.45V80.25H1034.07C1031.9 83.75 1029.03 86.4167 1025.45 88.25C1021.95 90.0833 1018.24 91 1014.32 91C1009.74 91 1005.9 90.375 1002.82 89.125C999.737 87.875 997.279 86.0833 995.445 83.75C993.695 81.4167 992.445 78.6667 991.695 75.5C991.029 72.3333 990.695 68.625 990.695 64.375V24.625H1008.45V61.125C1008.45 66.5417 1009.32 70.5417 1011.07 73.125C1012.9 75.7083 1015.82 77 1019.82 77C1024.65 77 1028.15 75.5833 1030.32 72.75C1032.49 69.8333 1033.57 65.0833 1033.57 58.5V24.625H1051.32Z" fill="#202020"/>
<path d="M914.781 57C914.781 46.6667 917.823 38.4167 923.906 32.25C929.99 26 938.073 22.875 948.156 22.875C958.323 22.875 966.448 26 972.531 32.25C978.615 38.4167 981.656 46.6667 981.656 57C981.656 67.25 978.615 75.5 972.531 81.75C966.448 87.9167 958.323 91 948.156 91C938.073 91 929.99 87.9167 923.906 81.75C917.823 75.5 914.781 67.25 914.781 57ZM932.531 57C932.531 59.75 932.781 62.3333 933.281 64.75C933.865 67.1667 934.74 69.375 935.906 71.375C937.156 73.2917 938.781 74.8333 940.781 76C942.865 77.0833 945.323 77.625 948.156 77.625C951.073 77.625 953.531 77.0833 955.531 76C957.615 74.8333 959.24 73.2917 960.406 71.375C961.656 69.375 962.531 67.1667 963.031 64.75C963.615 62.3333 963.906 59.75 963.906 57C963.906 54.25 963.615 51.6667 963.031 49.25C962.531 46.75 961.656 44.5417 960.406 42.625C959.24 40.625 957.615 39.0833 955.531 38C953.531 36.8333 951.073 36.25 948.156 36.25C945.323 36.25 942.865 36.8333 940.781 38C938.781 39.0833 937.156 40.625 935.906 42.625C934.74 44.5417 933.865 46.75 933.281 49.25C932.781 51.6667 932.531 54.25 932.531 57Z" fill="#202020"/>
<path d="M878.406 89.25V16.5H851.656V0H924.781V16.5H898.031V89.25H878.406Z" fill="#202020"/>
<path d="M853.336 24.625L826.336 97.375C824.419 102.625 821.753 106.375 818.336 108.625C814.919 110.875 810.169 112 804.086 112C800.836 112 797.211 111.792 793.211 111.375V96.75C793.961 96.8333 794.711 96.9167 795.461 97C798.711 97.25 801.419 97.375 803.586 97.375C805.753 97.125 807.419 96.2083 808.586 94.625C809.836 93.125 810.461 91.3333 810.461 89.25C810.461 87.8333 810.211 86.5 809.711 85.25L786.961 24.625H805.961L820.586 68.875H820.836L834.961 24.625H853.336Z" fill="#202020"/>
<path d="M782.67 24.625V85.125C782.67 88.375 782.253 91.5833 781.42 94.75C780.67 97.9167 779.128 100.958 776.795 103.875C774.462 106.792 771.003 109.167 766.42 111C761.92 112.833 756.17 113.75 749.17 113.75C745.837 113.75 742.503 113.333 739.17 112.5C735.92 111.667 732.92 110.417 730.17 108.75C727.503 107.083 725.295 104.917 723.545 102.25C721.795 99.5833 720.837 96.5 720.67 93H738.295C739.045 96.1667 740.587 98.4167 742.92 99.75C745.253 101.167 748.128 101.875 751.545 101.875C756.295 101.875 759.837 100.417 762.17 97.5C764.587 94.6667 765.795 90.7917 765.795 85.875V77.375H765.545C763.712 80.625 761.003 83.125 757.42 84.875C753.92 86.5417 750.17 87.375 746.17 87.375C741.503 87.375 737.378 86.5417 733.795 84.875C730.295 83.2083 727.42 80.9167 725.17 78C722.92 75 721.253 71.5417 720.17 67.625C719.087 63.7083 718.545 59.4583 718.545 54.875C718.545 50.625 719.128 46.5833 720.295 42.75C721.545 38.9167 723.337 35.5 725.67 32.5C728.087 29.5 731.003 27.1667 734.42 25.5C737.92 23.75 741.878 22.875 746.295 22.875C750.712 22.875 754.503 23.7083 757.67 25.375C760.837 26.9583 763.462 29.5833 765.545 33.25H765.795V24.625H782.67ZM750.67 74C755.503 74 759.212 72.25 761.795 68.75C764.462 65.25 765.795 61.0417 765.795 56.125C765.795 53.375 765.503 50.8333 764.92 48.5C764.42 46.0833 763.587 43.9583 762.42 42.125C761.253 40.2917 759.67 38.875 757.67 37.875C755.753 36.7917 753.42 36.25 750.67 36.25C745.92 36.25 742.337 38 739.92 41.5C737.503 45 736.295 49.375 736.295 54.625C736.295 57.125 736.545 59.5 737.045 61.75C737.545 64 738.337 66.0417 739.42 67.875C740.587 69.7083 742.087 71.2083 743.92 72.375C745.837 73.4583 748.087 74 750.67 74Z" fill="#202020"/>
<path d="M644.629 57C644.629 46.6667 647.671 38.4167 653.754 32.25C659.837 26 667.921 22.875 678.004 22.875C688.171 22.875 696.296 26 702.379 32.25C708.462 38.4167 711.504 46.6667 711.504 57C711.504 67.25 708.462 75.5 702.379 81.75C696.296 87.9167 688.171 91 678.004 91C667.921 91 659.837 87.9167 653.754 81.75C647.671 75.5 644.629 67.25 644.629 57ZM662.379 57C662.379 59.75 662.629 62.3333 663.129 64.75C663.712 67.1667 664.587 69.375 665.754 71.375C667.004 73.2917 668.629 74.8333 670.629 76C672.712 77.0833 675.171 77.625 678.004 77.625C680.921 77.625 683.379 77.0833 685.379 76C687.462 74.8333 689.087 73.2917 690.254 71.375C691.504 69.375 692.379 67.1667 692.879 64.75C693.462 62.3333 693.754 59.75 693.754 57C693.754 54.25 693.462 51.6667 692.879 49.25C692.379 46.75 691.504 44.5417 690.254 42.625C689.087 40.625 687.462 39.0833 685.379 38C683.379 36.8333 680.921 36.25 678.004 36.25C675.171 36.25 672.712 36.8333 670.629 38C668.629 39.0833 667.004 40.625 665.754 42.625C664.587 44.5417 663.712 46.75 663.129 49.25C662.629 51.6667 662.379 54.25 662.379 57Z" fill="#202020"/>
<path d="M617.402 89.25V0H635.152V89.25H617.402Z" fill="#202020"/>
<path d="M587.676 89.25V24.625H605.426V89.25H587.676ZM605.426 0V14.625H587.676V0H605.426Z" fill="#202020"/>
<path d="M541.092 89.25V24.625H557.967V36.625H558.217C559.8 32.625 562.55 29.3333 566.467 26.75C570.383 24.1667 574.508 22.875 578.842 22.875C580.175 22.875 581.467 23.0833 582.717 23.5V40C581.967 39.8333 580.967 39.7083 579.717 39.625C578.55 39.4583 577.425 39.375 576.342 39.375C570.258 39.375 565.8 41.2917 562.967 45.125C560.217 48.875 558.842 53.875 558.842 60.125V89.25H541.092Z" fill="#202020"/>
<path d="M500.275 89.25V16.5H473.525V0H546.65V16.5H519.9V89.25H500.275Z" fill="#202020"/>
<path d="M473.594 24.625L453.219 89.25H434.969L423.469 45.875H423.219L412.219 89.25H393.844L373.344 24.625H392.094L403.969 68.5H404.219L414.969 24.625H432.219L443.219 68.375H443.469L455.344 24.625H473.594Z" fill="#202020"/>
<path d="M371.316 61.25H324.691C324.941 66.8333 326.4 70.9583 329.066 73.625C331.733 76.2917 335.566 77.625 340.566 77.625C343.983 77.625 347.025 76.7917 349.691 75.125C352.358 73.375 353.983 71.4167 354.566 69.25H370.191C367.775 76.6667 363.983 82.1667 358.816 85.75C353.733 89.25 347.441 91 339.941 91C334.941 91 330.4 90.2083 326.316 88.625C322.233 86.9583 318.733 84.625 315.816 81.625C312.983 78.5417 310.775 74.9167 309.191 70.75C307.691 66.5 306.941 61.9167 306.941 57C306.941 52.1667 307.733 47.6667 309.316 43.5C310.9 39.3333 313.15 35.7083 316.066 32.625C318.983 29.5417 322.483 27.1667 326.566 25.5C330.65 23.75 335.108 22.875 339.941 22.875C345.025 22.875 349.525 23.8333 353.441 25.75C357.441 27.5833 360.733 30.125 363.316 33.375C365.983 36.625 367.983 40.375 369.316 44.625C370.733 48.875 371.441 53.375 371.441 58.125C371.441 58.4583 371.4 58.9583 371.316 59.625C371.316 60.375 371.316 60.9167 371.316 61.25ZM324.691 50H353.566C352.733 45.3333 351.191 41.875 348.941 39.625C346.775 37.375 343.608 36.25 339.441 36.25C336.775 36.25 334.483 36.7083 332.566 37.625C330.733 38.5417 329.233 39.7083 328.066 41.125C326.9 42.5417 326.066 44.0417 325.566 45.625C325.066 47.125 324.775 48.5833 324.691 50Z" fill="#202020"/>
<path d="M221.789 89.25V0H241.289L278.539 59.875H278.789V0H297.164V89.25H277.539L240.414 29.5H240.164V89.25H221.789Z" fill="#202020"/>
<path d="M211.887 61.25H165.262C165.512 66.8333 166.97 70.9583 169.637 73.625C172.303 76.2917 176.137 77.625 181.137 77.625C184.553 77.625 187.595 76.7917 190.262 75.125C192.928 73.375 194.553 71.4167 195.137 69.25H210.762C208.345 76.6667 204.553 82.1667 199.387 85.75C194.303 89.25 188.012 91 180.512 91C175.512 91 170.97 90.2083 166.887 88.625C162.803 86.9583 159.303 84.625 156.387 81.625C153.553 78.5417 151.345 74.9167 149.762 70.75C148.262 66.5 147.512 61.9167 147.512 57C147.512 52.1667 148.303 47.6667 149.887 43.5C151.47 39.3333 153.72 35.7083 156.637 32.625C159.553 29.5417 163.053 27.1667 167.137 25.5C171.22 23.75 175.678 22.875 180.512 22.875C185.595 22.875 190.095 23.8333 194.012 25.75C198.012 27.5833 201.303 30.125 203.887 33.375C206.553 36.625 208.553 40.375 209.887 44.625C211.303 48.875 212.012 53.375 212.012 58.125C212.012 58.4583 211.97 58.9583 211.887 59.625C211.887 60.375 211.887 60.9167 211.887 61.25ZM165.262 50H194.137C193.303 45.3333 191.762 41.875 189.512 39.625C187.345 37.375 184.178 36.25 180.012 36.25C177.345 36.25 175.053 36.7083 173.137 37.625C171.303 38.5417 169.803 39.7083 168.637 41.125C167.47 42.5417 166.637 44.0417 166.137 45.625C165.637 47.125 165.345 48.5833 165.262 50Z" fill="#202020"/>
<path d="M79.041 89.25V0H96.791V33.625H97.166C99.3327 30.125 102.124 27.4583 105.541 25.625C109.041 23.7917 112.541 22.875 116.041 22.875C120.624 22.875 124.458 23.5 127.541 24.75C130.624 26 133.041 27.7917 134.791 30.125C136.624 32.375 137.874 35.125 138.541 38.375C139.291 41.5417 139.666 45.25 139.666 49.5V89.25H121.916V52.75C121.916 47.3333 121.041 43.3333 119.291 40.75C117.541 38.1667 114.624 36.875 110.541 36.875C105.708 36.875 102.208 38.3333 100.041 41.25C97.8743 44.0833 96.791 48.7917 96.791 55.375V89.25H79.041Z" fill="#202020"/>
<path d="M26.75 89.25V16.5H0V0H73.125V16.5H46.375V89.25H26.75Z" fill="#202020"/>
</svg>
