<svg width="2616" height="466" viewBox="0 0 2616 466" fill="none" xmlns="http://www.w3.org/2000/svg">
<path d="M2159 8.29492H2268L2297.5 319.295L2330 8.29492H2446.5L2479.5 318.295L2509.5 8.29492H2615.5L2570.5 454.795L2423.5 455.795L2389.5 206.795L2352 454.795H2211.5L2159 8.29492Z" fill="white"/>
<path d="M2139.56 308.295C2139.56 351.295 2142.06 414.295 2082.56 448.295C2042.56 470.795 1967.06 471.795 1926.06 447.795C1877.56 419.295 1872.56 364.295 1872.06 329.295V139.795C1870.56 104.295 1872.06 49.295 1924.56 18.295C1968.56 -7.70501 2041.06 -5.20498 2085.56 20.795C2142.56 52.795 2139.56 119.295 2139.56 161.295V308.295ZM2028.06 119.295C2028.06 92.295 2029.06 73.295 2007.56 73.295C1988.56 73.295 1985.56 91.795 1985.56 118.795V343.795C1985.56 370.795 1988.56 387.795 2007.56 387.795C2029.06 387.795 2028.06 370.295 2028.06 343.295V119.295Z" fill="white"/>
<path d="M1719.97 93.7947C1713.97 82.2947 1702.97 80.2947 1685.97 81.2947V179.295C1702.97 179.795 1713.97 178.295 1719.97 166.795C1723.47 158.795 1723.47 100.795 1719.97 93.7947ZM1721.97 258.795C1715.97 247.795 1702.97 245.295 1685.97 245.795V454.795H1573.47V8.29467H1681.97C1705.97 8.29467 1789.47 7.29467 1816.47 53.7947C1830.97 77.7947 1831.47 161.295 1820.97 188.295C1816.97 197.295 1803.97 218.295 1770.97 221.295C1814.97 225.295 1834.47 252.795 1833.97 321.295V454.795H1725.97V309.295C1725.47 267.295 1725.97 270.795 1721.97 258.795Z" fill="white"/>
<path d="M1421.38 93.7947C1415.38 82.2947 1404.38 80.2947 1387.38 81.2947V179.295C1404.38 179.795 1415.38 178.295 1421.38 166.795C1424.87 158.795 1424.87 100.795 1421.38 93.7947ZM1423.38 258.795C1417.38 247.795 1404.38 245.295 1387.38 245.795V454.795H1274.88V8.29467H1383.38C1407.37 8.29467 1490.88 7.29467 1517.88 53.7947C1532.37 77.7947 1532.88 161.295 1522.38 188.295C1518.37 197.295 1505.38 218.295 1472.38 221.295C1516.37 225.295 1535.87 252.795 1535.38 321.295V454.795H1427.38V309.295C1426.87 267.295 1427.38 270.795 1423.38 258.795Z" fill="white"/>
<path d="M1237.43 308.295C1237.43 351.295 1239.93 414.295 1180.43 448.295C1140.43 470.795 1064.93 471.795 1023.93 447.795C975.434 419.295 970.434 364.295 969.934 329.295V139.795C968.434 104.295 969.934 49.295 1022.43 18.295C1066.43 -7.70501 1138.93 -5.20498 1183.43 20.795C1240.43 52.795 1237.43 119.295 1237.43 161.295V308.295ZM1125.93 119.295C1125.93 92.295 1126.93 73.295 1105.43 73.295C1086.43 73.295 1083.43 91.795 1083.43 118.795V343.795C1083.43 370.795 1086.43 387.795 1105.43 387.795C1126.93 387.795 1125.93 370.295 1125.93 343.295V119.295Z" fill="white"/>
<path d="M570.266 8.29492H718.766L752.766 278.295L780.266 8.29492H931.766V454.795H830.766V123.795L785.766 454.795H718.266L670.766 126.295V454.795H570.266V8.29492Z" fill="white"/>
<path d="M532.824 308.295C532.824 351.295 535.324 414.295 475.824 448.295C435.824 470.795 360.324 471.795 319.324 447.795C270.824 419.295 265.824 364.295 265.324 329.295V139.795C263.824 104.295 265.324 49.295 317.824 18.295C361.824 -7.70501 434.324 -5.20498 478.824 20.795C535.824 52.795 532.824 119.295 532.824 161.295V308.295ZM421.324 119.295C421.324 92.295 422.324 73.295 400.824 73.295C381.824 73.295 378.824 91.795 378.824 118.795V343.795C378.824 370.795 381.824 387.795 400.824 387.795C422.324 387.795 421.324 370.295 421.324 343.295V119.295Z" fill="white"/>
<path d="M245.5 8.29492V102.295H181V454.795H66.5V102.295H0V8.29492H245.5Z" fill="white"/>
</svg>
